{
    "asset" : {
        "generator" : "Khronos glTF Blender I/O v1.6.16",
        "version" : "2.0"
    },
    "scene" : 0,
    "scenes" : [
        {
            "name" : "Scene",
            "nodes" : [
                0
            ]
        }
    ],
    "nodes" : [
        {
            "mesh" : 0,
            "name" : "mattresses"
        }
    ],
    "materials" : [
        {
            "doubleSided" : true,
            "name" : "material_white",
            "pbrMetallicRoughness" : {
                "baseColorTexture" : {
                    "index" : 0
                },
                "metallicFactor" : 0,
                "roughnessFactor" : 0.5
            }
        },
        {
            "doubleSided" : true,
            "name" : "material_brown",
            "pbrMetallicRoughness" : {
                "baseColorFactor" : [
                    0.19120171666145325,
                    0.15592648088932037,
                    0.13563336431980133,
                    1
                ],
                "metallicFactor" : 0,
                "roughnessFactor" : 0.5
            }
        }
    ],
    "meshes" : [
        {
            "name" : "mattresses.303",
            "primitives" : [
                {
                    "attributes" : {
                        "POSITION" : 0,
                        "NORMAL" : 1,
                        "TEXCOORD_0" : 2
                    },
                    "indices" : 3,
                    "material" : 0
                },
                {
                    "attributes" : {
                        "POSITION" : 4,
                        "NORMAL" : 5,
                        "TEXCOORD_0" : 6
                    },
                    "indices" : 7,
                    "material" : 1
                }
            ]
        }
    ],
    "textures" : [
        {
            "sampler" : 0,
            "source" : 0
        }
    ],
    "images" : [
        {
            "bufferView" : 4,
            "mimeType" : "image/png",
            "name" : "saatva-logo-vector"
        }
    ],
    "accessors" : [
        {
            "bufferView" : 0,
            "componentType" : 5126,
            "count" : 52490,
            "max" : [
                8.0404691696167,
                1.4294025897979736,
                8.460824966430664
            ],
            "min" : [
                -8.0404691696167,
                -1.72140634059906,
                -8.460824966430664
            ],
            "type" : "VEC3"
        },
        {
            "bufferView" : 1,
            "componentType" : 5126,
            "count" : 52490,
            "type" : "VEC3"
        },
        {
            "bufferView" : 2,
            "componentType" : 5126,
            "count" : 52490,
            "type" : "VEC2"
        },
        {
            "bufferView" : 3,
            "componentType" : 5123,
            "count" : 309264,
            "type" : "SCALAR"
        },
        {
            "bufferView" : 5,
            "componentType" : 5126,
            "count" : 5360,
            "max" : [
                8.082733154296875,
                1.2234331369400024,
                8.489577293395996
            ],
            "min" : [
                -8.082733154296875,
                -1.5100970268249512,
                -8.489577293395996
            ],
            "type" : "VEC3"
        },
        {
            "bufferView" : 6,
            "componentType" : 5126,
            "count" : 5360,
            "type" : "VEC3"
        },
        {
            "bufferView" : 7,
            "componentType" : 5126,
            "count" : 5360,
            "type" : "VEC2"
        },
        {
            "bufferView" : 8,
            "componentType" : 5123,
            "count" : 23520,
            "type" : "SCALAR"
        }
    ],
    "bufferViews" : [
        {
            "buffer" : 0,
            "byteLength" : 629880,
            "byteOffset" : 0
        },
        {
            "buffer" : 0,
            "byteLength" : 629880,
            "byteOffset" : 629880
        },
        {
            "buffer" : 0,
            "byteLength" : 419920,
            "byteOffset" : 1259760
        },
        {
            "buffer" : 0,
            "byteLength" : 618528,
            "byteOffset" : 1679680
        },
        {
            "buffer" : 0,
            "byteLength" : 69409,
            "byteOffset" : 2298208
        },
        {
            "buffer" : 0,
            "byteLength" : 64320,
            "byteOffset" : 2367620
        },
        {
            "buffer" : 0,
            "byteLength" : 64320,
            "byteOffset" : 2431940
        },
        {
            "buffer" : 0,
            "byteLength" : 42880,
            "byteOffset" : 2496260
        },
        {
            "buffer" : 0,
            "byteLength" : 47040,
            "byteOffset" : 2539140
        }
    ],
    "samplers" : [
        {
            "magFilter" : 9729,
            "minFilter" : 9987,
            "wrapS" : 33071,
            "wrapT" : 33071
        }
    ],
    "buffers" : [
        {
            "byteLength" : 2586180,
            "uri" : "data:application/octet-stream;base64,"
        }
    ]
}
