{
    "asset" : {
        "generator" : "Khronos glTF Blender I/O v1.6.16",
        "version" : "2.0"
    },
    "scene" : 0,
    "scenes" : [
        {
            "name" : "Scene",
            "nodes" : [
                0
            ]
        }
    ],
    "nodes" : [
        {
            "mesh" : 0,
            "name" : "mattresses_twin"
        }
    ],
    "materials" : [
        {
            "doubleSided" : true,
            "name" : "material_white",
            "pbrMetallicRoughness" : {
                "baseColorFactor" : [
                    0.800000011920929,
                    0.800000011920929,
                    0.800000011920929,
                    1
                ],
                "metallicFactor" : 0,
                "roughnessFactor" : 0.5
            }
        },
        {
            "doubleSided" : true,
            "name" : "material_brown",
            "pbrMetallicRoughness" : {
                "baseColorFactor" : [
                    0.19120171666145325,
                    0.15592648088932037,
                    0.13563336431980133,
                    1
                ],
                "metallicFactor" : 0,
                "roughnessFactor" : 0.5
            }
        }
    ],
    "meshes" : [
        {
            "name" : "mattresses.001",
            "primitives" : [
                {
                    "attributes" : {
                        "POSITION" : 0,
                        "NORMAL" : 1,
                        "TEXCOORD_0" : 2
                    },
                    "indices" : 3,
                    "material" : 0
                },
                {
                    "attributes" : {
                        "POSITION" : 4,
                        "NORMAL" : 5,
                        "TEXCOORD_0" : 6
                    },
                    "indices" : 7,
                    "material" : 1
                }
            ]
        }
    ],
    "accessors" : [
        {
            "bufferView" : 0,
            "componentType" : 5126,
            "count" : 52490,
            "max" : [
                4.42449426651001,
                0.9670481085777283,
                7.531948566436768
            ],
            "min" : [
                -4.42449426651001,
                -1.1646003723144531,
                -7.531948566436768
            ],
            "type" : "VEC3"
        },
        {
            "bufferView" : 1,
            "componentType" : 5126,
            "count" : 52490,
            "type" : "VEC3"
        },
        {
            "bufferView" : 2,
            "componentType" : 5126,
            "count" : 52490,
            "type" : "VEC2"
        },
        {
            "bufferView" : 3,
            "componentType" : 5123,
            "count" : 309264,
            "type" : "SCALAR"
        },
        {
            "bufferView" : 4,
            "componentType" : 5126,
            "count" : 5360,
            "max" : [
                4.447751045227051,
                0.8277015686035156,
                7.557544231414795
            ],
            "min" : [
                -4.447751045227051,
                -1.0216411352157593,
                -7.557544231414795
            ],
            "type" : "VEC3"
        },
        {
            "bufferView" : 5,
            "componentType" : 5126,
            "count" : 5360,
            "type" : "VEC3"
        },
        {
            "bufferView" : 6,
            "componentType" : 5126,
            "count" : 5360,
            "type" : "VEC2"
        },
        {
            "bufferView" : 7,
            "componentType" : 5123,
            "count" : 23520,
            "type" : "SCALAR"
        }
    ],
    "bufferViews" : [
        {
            "buffer" : 0,
            "byteLength" : 629880,
            "byteOffset" : 0
        },
        {
            "buffer" : 0,
            "byteLength" : 629880,
            "byteOffset" : 629880
        },
        {
            "buffer" : 0,
            "byteLength" : 419920,
            "byteOffset" : 1259760
        },
        {
            "buffer" : 0,
            "byteLength" : 618528,
            "byteOffset" : 1679680
        },
        {
            "buffer" : 0,
            "byteLength" : 64320,
            "byteOffset" : 2298208
        },
        {
            "buffer" : 0,
            "byteLength" : 64320,
            "byteOffset" : 2362528
        },
        {
            "buffer" : 0,
            "byteLength" : 42880,
            "byteOffset" : 2426848
        },
        {
            "buffer" : 0,
            "byteLength" : 47040,
            "byteOffset" : 2469728
        }
    ],
    "buffers" : [
        {
            "byteLength" : 2516768,
            "uri" : "data:application/octet-stream;base64,"
        }
    ]
}
