{
    "asset" : {
        "generator" : "Khronos glTF Blender I/O v1.6.16",
        "version" : "2.0"
    },
    "scene" : 0,
    "scenes" : [
        {
            "name" : "Scene",
            "nodes" : [
                0
            ]
        }
    ],
    "nodes" : [
        {
            "mesh" : 0,
            "name" : "mattresses_solaire"
        }
    ],
    "materials" : [
        {
            "doubleSided" : true,
            "name" : "material_white",
            "pbrMetallicRoughness" : {
                "baseColorFactor" : [
                    0.800000011920929,
                    0.800000011920929,
                    0.800000011920929,
                    1
                ],
                "metallicFactor" : 0,
                "roughnessFactor" : 0.5
            }
        },
        {
            "doubleSided" : true,
            "name" : "material_brown",
            "pbrMetallicRoughness" : {
                "baseColorFactor" : [
                    0.19120171666145325,
                    0.15592648088932037,
                    0.13563336431980133,
                    1
                ],
                "metallicFactor" : 0,
                "roughnessFactor" : 0.5
            }
        }
    ],
    "meshes" : [
        {
            "name" : "mattresses.002",
            "primitives" : [
                {
                    "attributes" : {
                        "POSITION" : 0,
                        "NORMAL" : 1,
                        "TEXCOORD_0" : 2
                    },
                    "indices" : 3,
                    "material" : 0
                },
                {
                    "attributes" : {
                        "POSITION" : 4,
                        "NORMAL" : 5,
                        "TEXCOORD_0" : 6
                    },
                    "indices" : 7,
                    "material" : 1
                }
            ]
        }
    ],
    "accessors" : [
        {
            "bufferView" : 0,
            "componentType" : 5126,
            "count" : 54999,
            "max" : [
                8.0404691696167,
                4.441909313201904,
                8.460824966430664
            ],
            "min" : [
                -8.0404691696167,
                -1.72140634059906,
                -9.00345230102539
            ],
            "type" : "VEC3"
        },
        {
            "bufferView" : 1,
            "componentType" : 5126,
            "count" : 54999,
            "type" : "VEC3"
        },
        {
            "bufferView" : 2,
            "componentType" : 5126,
            "count" : 54999,
            "type" : "VEC2"
        },
        {
            "bufferView" : 3,
            "componentType" : 5123,
            "count" : 312087,
            "type" : "SCALAR"
        },
        {
            "bufferView" : 4,
            "componentType" : 5126,
            "count" : 6123,
            "max" : [
                8.082733154296875,
                4.388178825378418,
                8.489577293395996
            ],
            "min" : [
                -8.082733154296875,
                -1.5100970268249512,
                -9.00345230102539
            ],
            "type" : "VEC3"
        },
        {
            "bufferView" : 5,
            "componentType" : 5126,
            "count" : 6123,
            "type" : "VEC3"
        },
        {
            "bufferView" : 6,
            "componentType" : 5126,
            "count" : 6123,
            "type" : "VEC2"
        },
        {
            "bufferView" : 7,
            "componentType" : 5123,
            "count" : 24657,
            "type" : "SCALAR"
        }
    ],
    "bufferViews" : [
        {
            "buffer" : 0,
            "byteLength" : 659988,
            "byteOffset" : 0
        },
        {
            "buffer" : 0,
            "byteLength" : 659988,
            "byteOffset" : 659988
        },
        {
            "buffer" : 0,
            "byteLength" : 439992,
            "byteOffset" : 1319976
        },
        {
            "buffer" : 0,
            "byteLength" : 624174,
            "byteOffset" : 1759968
        },
        {
            "buffer" : 0,
            "byteLength" : 73476,
            "byteOffset" : 2384144
        },
        {
            "buffer" : 0,
            "byteLength" : 73476,
            "byteOffset" : 2457620
        },
        {
            "buffer" : 0,
            "byteLength" : 48984,
            "byteOffset" : 2531096
        },
        {
            "buffer" : 0,
            "byteLength" : 49314,
            "byteOffset" : 2580080
        }
    ],
    "buffers" : [
        {
            "byteLength" : 2629396,
            "uri" : "data:application/octet-stream;base64,"
        }
    ]
}
